<svg xmlns="http://www.w3.org/2000/svg" class="w-10 h-10 text-purple-900" viewBox="0 0 36 36">
  <path fill="#F7BE64" stroke="currentColor" d="M29.137 5.113c.44 0 .862.165 1.184.461l.051.051a1.75 1.75 0 0 1 0 2.475l-1.588 1.59-.006.007a1.75 1.75 0 1 1-2.475-2.475l.007-.006 1.59-1.59a1.75 1.75 0 0 1 1.238-.513ZM7.217 9.691 5.628 8.102a1.75 1.75 0 0 1 2.474-2.474l1.59 1.587A1.75 1.75 0 1 1 7.216 9.69ZM18 .5a1.75 1.75 0 0 1 1.75 1.75V4.5a1.75 1.75 0 0 1-3.5 0V2.25A1.75 1.75 0 0 1 18 .5ZM26.5 18a8.5 8.5 0 1 1-17 0 8.5 8.5 0 0 1 17 0Zm1.397 12.371-1.584-1.584a1.75 1.75 0 0 1 2.474-2.474l1.584 1.584a1.75 1.75 0 0 1-2.474 2.474Zm7.09-11.134a1.75 1.75 0 0 1-1.237.513H31.5a1.75 1.75 0 0 1 0-3.5h2.25a1.75 1.75 0 0 1 1.237 2.987ZM18 29.75a1.75 1.75 0 0 1 1.75 1.75v2.25a1.75 1.75 0 0 1-3.5 0V31.5A1.75 1.75 0 0 1 18 29.75Zm-8.313-.963-1.584 1.584a1.75 1.75 0 0 1-2.474-2.474l1.584-1.584a1.75 1.75 0 0 1 2.474 2.474Zm-3.95-9.55a1.75 1.75 0 0 1-1.237.513H2.25a1.75 1.75 0 0 1 0-3.5H4.5a1.75 1.75 0 0 1 1.237 2.987Z"/>
</svg>
